<?xml version="1.0" encoding="utf-8"?>
<!-- Generator: Adobe Illustrator 16.0.4, SVG Export Plug-In . SVG Version: 6.00 Build 0)  -->
<!DOCTYPE svg PUBLIC "-//W3C//DTD SVG 1.1//EN" "http://www.w3.org/Graphics/SVG/1.1/DTD/svg11.dtd">
<svg version="1.1" id="Layer_1" xmlns="http://www.w3.org/2000/svg" xmlns:xlink="http://www.w3.org/1999/xlink" x="0px" y="0px"
	 width="200px" height="41.148px" viewBox="0 0 200 41.148" enable-background="new 0 0 200 41.148" xml:space="preserve">
<g>
	<g>
		<polygon fill="#0B0204" points="195.809,36.96 4.189,36.96 4.189,4.19 114.629,4.19 114.629,5.041 5.038,5.041 5.038,36.109 
			194.959,36.109 194.959,5.041 130.648,5.041 130.648,4.19 195.809,4.19 		"/>
	</g>
	<g>
		<polyline fill="#0B0204" points="191.971,39.946 195.385,36.536 198.797,33.122 		"/>
		
			<rect x="193.687" y="31.706" transform="matrix(0.7073 0.707 -0.707 0.7073 83.0271 -127.4353)" fill="#0B0204" width="3.398" height="9.655"/>
	</g>
	<g>
		<polyline fill="#0B0204" points="191.971,8.028 195.385,4.616 198.797,1.202 		"/>
		
			<rect x="193.686" y="-0.212" transform="matrix(0.7071 0.7071 -0.7071 0.7071 60.4903 -136.807)" fill="#0B0204" width="3.399" height="9.654"/>
	</g>
	<g>
		<polyline fill="#0B0204" points="1.201,39.946 4.614,36.536 8.027,33.122 		"/>
		
			<rect x="2.914" y="31.707" transform="matrix(0.7069 0.7073 -0.7073 0.7069 27.1931 7.4458)" fill="#0B0204" width="3.396" height="9.653"/>
	</g>
	<g>
		<polyline fill="#0B0204" points="1.201,8.028 4.614,4.616 8.027,1.202 		"/>
		
			<rect x="2.914" y="-0.211" transform="matrix(0.7067 0.7075 -0.7075 0.7067 4.6174 -1.9099)" fill="#0B0204" width="3.397" height="9.652"/>
	</g>
	<g>
		<g>
			<polygon fill="#0B0204" points="122.207,7.838 117.457,1.866 126.957,1.866 			"/>
		</g>
	</g>
	<g>
		<g>
			<path fill="#0B0204" d="M14.298,11.853h3.491l5.607,8.231l5.607-8.231h3.489v17.139h-4.765V20.95l-2.791,3.995h-3.081
				l-2.793-4.043v8.089h-4.765V11.853z"/>
		</g>
		<g>
			<path fill="#0B0204" d="M34.249,11.853h4.815v17.139h-4.815V11.853z"/>
		</g>
		<g>
			<path fill="#0B0204" d="M40.82,11.853h12.95v3.994h-8.137v2.456h7.391v3.899h-7.391v2.792h8.282v3.997H40.82V11.853z"/>
		</g>
		<g>
			<path fill="#0B0204" d="M53.408,26.606l3.01-3.008c1.251,1.202,2.598,1.829,4.187,1.829c1.325,0,1.999-0.434,1.999-1.132
				c0-2.456-7.967-1.469-7.967-7.389c0-3.322,2.527-5.344,6.425-5.344c2.552,0,4.863,0.866,6.307,2.358l-3.032,3.009
				c-1.06-1.035-2.07-1.517-3.321-1.517c-1.012,0-1.639,0.313-1.639,0.964c0,2.334,7.967,1.299,7.967,7.412
				c0,3.489-2.598,5.488-7.122,5.488C57.283,29.278,55.237,28.46,53.408,26.606z"/>
		</g>
		<g>
			<path fill="#0B0204" d="M67.465,25.644l7.412-9.819h-7.028v-3.972H81.23v3.345l-7.437,9.821h7.221v3.973H67.465V25.644z"/>
		</g>
		<g>
			<path fill="#0B0204" d="M82.24,11.853h4.815v7.631l5.293-7.631h5.8l-6.039,8.158l6.305,8.98h-5.777l-5.583-8.33v8.33H82.24
				V11.853z"/>
		</g>
		<g>
			<path fill="#0B0204" d="M103.229,11.853h4.91l6.449,17.139h-5.006l-0.939-2.891h-6.063l-0.964,2.891h-4.91L103.229,11.853z
				 M107.393,22.347l-1.733-5.319l-1.807,5.319H107.393z"/>
		</g>
		<g>
			<path fill="#0B0204" d="M114.506,11.853h3.369l7.221,9.074v-9.074h4.813v17.139h-3.61l-6.98-8.762v8.762h-4.812V11.853z"/>
		</g>
		<g>
			<path fill="#0B0204" d="M130.314,26.63c0-1.491,1.107-2.672,2.623-2.672c1.492,0,2.6,1.181,2.6,2.672
				c0,1.492-1.107,2.648-2.6,2.648C131.422,29.278,130.314,28.122,130.314,26.63z"/>
		</g>
		<g>
			<path fill="#0B0204" d="M134.205,20.397c0-5.104,4.041-8.834,9.288-8.834c2.672,0,4.91,0.891,6.547,2.358l-3.2,3.226
				c-0.771-0.843-1.877-1.349-3.347-1.349c-2.575,0-4.38,1.759-4.38,4.599c0,2.863,1.805,4.645,4.38,4.645
				c1.444,0,2.575-0.457,3.418-1.324l3.226,3.225c-1.709,1.47-3.73,2.336-6.596,2.336C138.295,29.278,134.205,25.499,134.205,20.397
				z"/>
		</g>
		<g>
			<path fill="#0B0204" d="M148.217,20.397c0-5.104,3.924-8.881,9.289-8.881c5.369,0,9.292,3.776,9.292,8.904
				c0,5.104-3.923,8.906-9.243,8.906C152.188,29.327,148.217,25.499,148.217,20.397z M161.889,20.397
				c0-2.84-1.711-4.646-4.383-4.646c-2.694,0-4.379,1.807-4.379,4.646c0,2.863,1.685,4.692,4.379,4.692
				C160.203,25.09,161.889,23.261,161.889,20.397z"/>
		</g>
		<g>
			<path fill="#0B0204" d="M167.344,11.853h3.492l5.607,8.231l5.607-8.231h3.488v17.139h-4.765V20.95l-2.791,3.995h-3.081
				l-2.793-4.043v8.089h-4.766V11.853z"/>
		</g>
	</g>
</g>
</svg>
